<!--
  ╔══════════════════════════════════════════════════════════════════╗
  ║  TOP-DOWN PIXEL ART TRAIN SPRITE SHEET                         ║
  ║  Grid: 32×32px per tile  |  Palette: 12 colors (retro)         ║
  ║  Rendering: crispEdges (pixel-perfect)                         ║
  ║                                                                ║
  ║  SPRITES INCLUDED:                                             ║
  ║  ─────────────────────────────────────────────────────────────  ║
  ║  TRACK PIECES (32×32 each):                                    ║
  ║    #track-straight-v    Vertical straight track                ║
  ║    #track-straight-h    Horizontal straight track              ║
  ║    #track-curve-ne      Curve: south→east (NE corner)          ║
  ║    #track-curve-nw      Curve: south→west (NW corner)          ║
  ║    #track-curve-se      Curve: north→east (SE corner)          ║
  ║    #track-curve-sw      Curve: north→west (SW corner)          ║
  ║                                                                ║
  ║  ROLLING STOCK (32×32 each):                                   ║
  ║    #train-loco-n        Locomotive facing north (up)           ║
  ║    #train-loco-e        Locomotive facing east (right)         ║
  ║    #train-loco-s        Locomotive facing south (down)         ║
  ║    #train-loco-w        Locomotive facing west (left)          ║
  ║    #carriage-bucket-n   Bucket carriage facing north           ║
  ║    #carriage-bucket-e   Bucket carriage facing east            ║
  ║    #carriage-bucket-s   Bucket carriage facing south           ║
  ║    #carriage-bucket-w   Bucket carriage facing west            ║
  ║                                                                ║
  ║  USAGE:                                                        ║
  ║    <use href="#track-straight-v" x="0" y="0" width="32"        ║
  ║         height="32"/>                                          ║
  ║                                                                ║
  ║  COLOR PALETTE:                                                ║
  ║    #3b2d1a  Rail ties (dark wood)                              ║
  ║    #5c4a32  Rail ties highlight                                ║
  ║    #7a7a7a  Rail metal                                         ║
  ║    #9e9e9e  Rail highlight                                     ║
  ║    #c8b898  Ballast / gravel                                   ║
  ║    #a8382a  Locomotive body (red)                              ║
  ║    #cc4c3a  Locomotive highlight                               ║
  ║    #2a2a2a  Dark details / outlines                            ║
  ║    #4a4a4a  Medium dark                                        ║
  ║    #e8d8a8  Window / headlight                                 ║
  ║    #7a6832  Bucket carriage (wood)                             ║
  ║    #9a884a  Bucket highlight                                   ║
  ║    #5a4a28  Bucket shadow                                      ║
  ║    #555555  Coal / cargo                                       ║
  ║    #444444  Coal shadow                                        ║
  ║    #666666  Wheels / coupling                                  ║
  ╚══════════════════════════════════════════════════════════════════╝
-->
<svg xmlns="http://www.w3.org/2000/svg"
     xmlns:xlink="http://www.w3.org/1999/xlink"
     viewBox="0 0 256 256"
     width="512" height="512"
     shape-rendering="crispEdges"
     image-rendering="pixelated">

  <defs>

    <!-- ═══════════════════════════════════════════ -->
    <!-- TRACK: VERTICAL STRAIGHT                    -->
    <!-- ═══════════════════════════════════════════ -->
    <symbol id="track-straight-v" viewBox="0 0 32 32">
      <!-- Ballast background -->
      <rect x="0" y="0" width="32" height="32" fill="#c8b898"/>
      <!-- Left rail -->
      <rect x="9"  y="0" width="2" height="32" fill="#7a7a7a"/>
      <rect x="10" y="0" width="1" height="32" fill="#9e9e9e"/>
      <!-- Right rail -->
      <rect x="21" y="0" width="2" height="32" fill="#7a7a7a"/>
      <rect x="22" y="0" width="1" height="32" fill="#9e9e9e"/>
      <!-- Ties (cross sleepers) -->
      <rect x="6" y="2"  width="20" height="3" fill="#3b2d1a"/>
      <rect x="7" y="2"  width="18" height="1" fill="#5c4a32"/>
      <rect x="6" y="10" width="20" height="3" fill="#3b2d1a"/>
      <rect x="7" y="10" width="18" height="1" fill="#5c4a32"/>
      <rect x="6" y="18" width="20" height="3" fill="#3b2d1a"/>
      <rect x="7" y="18" width="18" height="1" fill="#5c4a32"/>
      <rect x="6" y="26" width="20" height="3" fill="#3b2d1a"/>
      <rect x="7" y="26" width="18" height="1" fill="#5c4a32"/>
    </symbol>

    <!-- ═══════════════════════════════════════════ -->
    <!-- TRACK: HORIZONTAL STRAIGHT                  -->
    <!-- ═══════════════════════════════════════════ -->
    <symbol id="track-straight-h" viewBox="0 0 32 32">
      <!-- Ballast background -->
      <rect x="0" y="0" width="32" height="32" fill="#c8b898"/>
      <!-- Top rail -->
      <rect x="0" y="9"  width="32" height="2" fill="#7a7a7a"/>
      <rect x="0" y="10" width="32" height="1" fill="#9e9e9e"/>
      <!-- Bottom rail -->
      <rect x="0" y="21" width="32" height="2" fill="#7a7a7a"/>
      <rect x="0" y="22" width="32" height="1" fill="#9e9e9e"/>
      <!-- Ties -->
      <rect x="2"  y="6" width="3" height="20" fill="#3b2d1a"/>
      <rect x="2"  y="7" width="1" height="18" fill="#5c4a32"/>
      <rect x="10" y="6" width="3" height="20" fill="#3b2d1a"/>
      <rect x="10" y="7" width="1" height="18" fill="#5c4a32"/>
      <rect x="18" y="6" width="3" height="20" fill="#3b2d1a"/>
      <rect x="18" y="7" width="1" height="18" fill="#5c4a32"/>
      <rect x="26" y="6" width="3" height="20" fill="#3b2d1a"/>
      <rect x="26" y="7" width="1" height="18" fill="#5c4a32"/>
    </symbol>

    <!-- ═══════════════════════════════════════════ -->
    <!-- TRACK: CURVE - SOUTH-TO-EAST (NE CORNER)    -->
    <!-- Connects: bottom edge → right edge           -->
    <!-- ═══════════════════════════════════════════ -->
    <symbol id="track-curve-ne" viewBox="0 0 32 32">
      <rect x="0" y="0" width="32" height="32" fill="#c8b898"/>
      <!-- Outer rail (approximate quarter arc using pixel segments) -->
      <!-- Arc from bottom-center to right-center -->
      <!-- Ties along curve -->
      <rect x="6" y="26" width="20" height="3" fill="#3b2d1a"/>
      <rect x="7" y="26" width="18" height="1" fill="#5c4a32"/>
      <rect x="26" y="6" width="3" height="20" fill="#3b2d1a"/>
      <rect x="26" y="7" width="1" height="18" fill="#5c4a32"/>
      <!-- Diagonal tie -->
      <rect x="17" y="14" width="3" height="10" fill="#3b2d1a" transform="rotate(-30 18 19)"/>
      <rect x="10" y="18" width="10" height="3" fill="#3b2d1a" transform="rotate(-30 15 19)"/>
      <!-- Outer rail pixels (quarter circle r=22, from bottom to right) -->
      <rect x="9"  y="30" width="2" height="2" fill="#7a7a7a"/>
      <rect x="9"  y="28" width="2" height="2" fill="#7a7a7a"/>
      <rect x="10" y="26" width="2" height="2" fill="#7a7a7a"/>
      <rect x="11" y="24" width="2" height="2" fill="#7a7a7a"/>
      <rect x="12" y="22" width="2" height="2" fill="#7a7a7a"/>
      <rect x="14" y="20" width="2" height="2" fill="#7a7a7a"/>
      <rect x="16" y="18" width="2" height="2" fill="#7a7a7a"/>
      <rect x="18" y="16" width="2" height="2" fill="#7a7a7a"/>
      <rect x="20" y="14" width="2" height="2" fill="#7a7a7a"/>
      <rect x="22" y="12" width="2" height="2" fill="#7a7a7a"/>
      <rect x="24" y="11" width="2" height="2" fill="#7a7a7a"/>
      <rect x="26" y="10" width="2" height="2" fill="#7a7a7a"/>
      <rect x="28" y="9"  width="2" height="2" fill="#7a7a7a"/>
      <rect x="30" y="9"  width="2" height="2" fill="#7a7a7a"/>
      <!-- Inner rail pixels (quarter circle r=10, from bottom to right) -->
      <rect x="21" y="30" width="2" height="2" fill="#7a7a7a"/>
      <rect x="21" y="28" width="2" height="2" fill="#7a7a7a"/>
      <rect x="22" y="26" width="2" height="2" fill="#7a7a7a"/>
      <rect x="24" y="24" width="2" height="2" fill="#7a7a7a"/>
      <rect x="26" y="22" width="2" height="2" fill="#7a7a7a"/>
      <rect x="28" y="21" width="2" height="2" fill="#7a7a7a"/>
      <rect x="30" y="21" width="2" height="2" fill="#7a7a7a"/>
    </symbol>

    <!-- ═══════════════════════════════════════════ -->
    <!-- TRACK: CURVE - SOUTH-TO-WEST (NW CORNER)   -->
    <!-- Connects: bottom edge → left edge            -->
    <!-- ═══════════════════════════════════════════ -->
    <symbol id="track-curve-nw" viewBox="0 0 32 32">
      <rect x="0" y="0" width="32" height="32" fill="#c8b898"/>
      <!-- Ties -->
      <rect x="6" y="26" width="20" height="3" fill="#3b2d1a"/>
      <rect x="7" y="26" width="18" height="1" fill="#5c4a32"/>
      <rect x="3" y="6" width="3" height="20" fill="#3b2d1a"/>
      <rect x="5" y="7" width="1" height="18" fill="#5c4a32"/>
      <rect x="8" y="18" width="10" height="3" fill="#3b2d1a" transform="rotate(30 13 19)"/>
      <!-- Outer rail (mirrored NE) -->
      <rect x="21" y="30" width="2" height="2" fill="#7a7a7a"/>
      <rect x="21" y="28" width="2" height="2" fill="#7a7a7a"/>
      <rect x="20" y="26" width="2" height="2" fill="#7a7a7a"/>
      <rect x="19" y="24" width="2" height="2" fill="#7a7a7a"/>
      <rect x="18" y="22" width="2" height="2" fill="#7a7a7a"/>
      <rect x="16" y="20" width="2" height="2" fill="#7a7a7a"/>
      <rect x="14" y="18" width="2" height="2" fill="#7a7a7a"/>
      <rect x="12" y="16" width="2" height="2" fill="#7a7a7a"/>
      <rect x="10" y="14" width="2" height="2" fill="#7a7a7a"/>
      <rect x="8"  y="12" width="2" height="2" fill="#7a7a7a"/>
      <rect x="6"  y="11" width="2" height="2" fill="#7a7a7a"/>
      <rect x="4"  y="10" width="2" height="2" fill="#7a7a7a"/>
      <rect x="2"  y="9"  width="2" height="2" fill="#7a7a7a"/>
      <rect x="0"  y="9"  width="2" height="2" fill="#7a7a7a"/>
      <!-- Inner rail -->
      <rect x="9"  y="30" width="2" height="2" fill="#7a7a7a"/>
      <rect x="9"  y="28" width="2" height="2" fill="#7a7a7a"/>
      <rect x="8"  y="26" width="2" height="2" fill="#7a7a7a"/>
      <rect x="6"  y="24" width="2" height="2" fill="#7a7a7a"/>
      <rect x="4"  y="22" width="2" height="2" fill="#7a7a7a"/>
      <rect x="2"  y="21" width="2" height="2" fill="#7a7a7a"/>
      <rect x="0"  y="21" width="2" height="2" fill="#7a7a7a"/>
    </symbol>

    <!-- ═══════════════════════════════════════════ -->
    <!-- TRACK: CURVE - NORTH-TO-EAST (SE CORNER)    -->
    <!-- Connects: top edge → right edge              -->
    <!-- ═══════════════════════════════════════════ -->
    <symbol id="track-curve-se" viewBox="0 0 32 32">
      <rect x="0" y="0" width="32" height="32" fill="#c8b898"/>
      <!-- Ties -->
      <rect x="6" y="3" width="20" height="3" fill="#3b2d1a"/>
      <rect x="7" y="3" width="18" height="1" fill="#5c4a32"/>
      <rect x="26" y="6" width="3" height="20" fill="#3b2d1a"/>
      <rect x="26" y="7" width="1" height="18" fill="#5c4a32"/>
      <rect x="17" y="8" width="3" height="10" fill="#3b2d1a" transform="rotate(30 18 13)"/>
      <!-- Outer rail -->
      <rect x="9"  y="0" width="2" height="2" fill="#7a7a7a"/>
      <rect x="9"  y="2" width="2" height="2" fill="#7a7a7a"/>
      <rect x="10" y="4" width="2" height="2" fill="#7a7a7a"/>
      <rect x="11" y="6" width="2" height="2" fill="#7a7a7a"/>
      <rect x="12" y="8" width="2" height="2" fill="#7a7a7a"/>
      <rect x="14" y="10" width="2" height="2" fill="#7a7a7a"/>
      <rect x="16" y="12" width="2" height="2" fill="#7a7a7a"/>
      <rect x="18" y="14" width="2" height="2" fill="#7a7a7a"/>
      <rect x="20" y="16" width="2" height="2" fill="#7a7a7a"/>
      <rect x="22" y="18" width="2" height="2" fill="#7a7a7a"/>
      <rect x="24" y="19" width="2" height="2" fill="#7a7a7a"/>
      <rect x="26" y="20" width="2" height="2" fill="#7a7a7a"/>
      <rect x="28" y="21" width="2" height="2" fill="#7a7a7a"/>
      <rect x="30" y="21" width="2" height="2" fill="#7a7a7a"/>
      <!-- Inner rail -->
      <rect x="21" y="0" width="2" height="2" fill="#7a7a7a"/>
      <rect x="21" y="2" width="2" height="2" fill="#7a7a7a"/>
      <rect x="22" y="4" width="2" height="2" fill="#7a7a7a"/>
      <rect x="24" y="6" width="2" height="2" fill="#7a7a7a"/>
      <rect x="26" y="8" width="2" height="2" fill="#7a7a7a"/>
      <rect x="28" y="9"  width="2" height="2" fill="#7a7a7a"/>
      <rect x="30" y="9"  width="2" height="2" fill="#7a7a7a"/>
    </symbol>

    <!-- ═══════════════════════════════════════════ -->
    <!-- TRACK: CURVE - NORTH-TO-WEST (SW CORNER)    -->
    <!-- Connects: top edge → left edge               -->
    <!-- ═══════════════════════════════════════════ -->
    <symbol id="track-curve-sw" viewBox="0 0 32 32">
      <rect x="0" y="0" width="32" height="32" fill="#c8b898"/>
      <!-- Ties -->
      <rect x="6" y="3" width="20" height="3" fill="#3b2d1a"/>
      <rect x="7" y="3" width="18" height="1" fill="#5c4a32"/>
      <rect x="3" y="6" width="3" height="20" fill="#3b2d1a"/>
      <rect x="5" y="7" width="1" height="18" fill="#5c4a32"/>
      <rect x="8" y="8" width="10" height="3" fill="#3b2d1a" transform="rotate(-30 13 13)"/>
      <!-- Outer rail -->
      <rect x="21" y="0" width="2" height="2" fill="#7a7a7a"/>
      <rect x="21" y="2" width="2" height="2" fill="#7a7a7a"/>
      <rect x="20" y="4" width="2" height="2" fill="#7a7a7a"/>
      <rect x="19" y="6" width="2" height="2" fill="#7a7a7a"/>
      <rect x="18" y="8" width="2" height="2" fill="#7a7a7a"/>
      <rect x="16" y="10" width="2" height="2" fill="#7a7a7a"/>
      <rect x="14" y="12" width="2" height="2" fill="#7a7a7a"/>
      <rect x="12" y="14" width="2" height="2" fill="#7a7a7a"/>
      <rect x="10" y="16" width="2" height="2" fill="#7a7a7a"/>
      <rect x="8"  y="18" width="2" height="2" fill="#7a7a7a"/>
      <rect x="6"  y="19" width="2" height="2" fill="#7a7a7a"/>
      <rect x="4"  y="20" width="2" height="2" fill="#7a7a7a"/>
      <rect x="2"  y="21" width="2" height="2" fill="#7a7a7a"/>
      <rect x="0"  y="21" width="2" height="2" fill="#7a7a7a"/>
      <!-- Inner rail -->
      <rect x="9"  y="0" width="2" height="2" fill="#7a7a7a"/>
      <rect x="9"  y="2" width="2" height="2" fill="#7a7a7a"/>
      <rect x="8"  y="4" width="2" height="2" fill="#7a7a7a"/>
      <rect x="6"  y="6" width="2" height="2" fill="#7a7a7a"/>
      <rect x="4"  y="8" width="2" height="2" fill="#7a7a7a"/>
      <rect x="2"  y="9" width="2" height="2" fill="#7a7a7a"/>
      <rect x="0"  y="9" width="2" height="2" fill="#7a7a7a"/>
    </symbol>

    <!-- ═══════════════════════════════════════════ -->
    <!-- LOCOMOTIVE: FACING NORTH (UP)               -->
    <!-- ═══════════════════════════════════════════ -->
    <symbol id="train-loco-n" viewBox="0 0 32 32">
      <!-- Body outline / shadow -->
      <rect x="8"  y="4"  width="16" height="24" fill="#2a2a2a"/>
      <!-- Main body (red) -->
      <rect x="9"  y="5"  width="14" height="22" fill="#a8382a"/>
      <!-- Body highlight (left side lit) -->
      <rect x="9"  y="5"  width="2"  height="22" fill="#cc4c3a"/>
      <!-- Roof / top highlight -->
      <rect x="9"  y="5"  width="14" height="2"  fill="#cc4c3a"/>
      <!-- Chimney / smokestack -->
      <rect x="14" y="3"  width="4"  height="4"  fill="#4a4a4a"/>
      <rect x="15" y="2"  width="2"  height="2"  fill="#666666"/>
      <!-- Smoke puff -->
      <rect x="14" y="0"  width="4"  height="2"  fill="#cccccc" opacity="0.6"/>
      <!-- Boiler detail lines -->
      <rect x="11" y="9"  width="10" height="1"  fill="#8a2820"/>
      <rect x="11" y="12" width="10" height="1"  fill="#8a2820"/>
      <!-- Cab window -->
      <rect x="12" y="18" width="8"  height="4"  fill="#2a2a2a"/>
      <rect x="13" y="19" width="6"  height="2"  fill="#e8d8a8"/>
      <!-- Front headlight -->
      <rect x="14" y="5"  width="4"  height="2"  fill="#e8d8a8"/>
      <!-- Wheels (visible on sides) -->
      <rect x="7"  y="8"  width="2"  height="4"  fill="#666666"/>
      <rect x="23" y="8"  width="2"  height="4"  fill="#4a4a4a"/>
      <rect x="7"  y="14" width="2"  height="4"  fill="#666666"/>
      <rect x="23" y="14" width="2"  height="4"  fill="#4a4a4a"/>
      <rect x="7"  y="20" width="2"  height="4"  fill="#666666"/>
      <rect x="23" y="20" width="2"  height="4"  fill="#4a4a4a"/>
      <!-- Coupler (rear) -->
      <rect x="14" y="27" width="4"  height="2"  fill="#666666"/>
      <rect x="15" y="29" width="2"  height="2"  fill="#4a4a4a"/>
    </symbol>

    <!-- ═══════════════════════════════════════════ -->
    <!-- LOCOMOTIVE: FACING EAST (RIGHT)             -->
    <!-- ═══════════════════════════════════════════ -->
    <symbol id="train-loco-e" viewBox="0 0 32 32">
      <rect x="4"  y="8"  width="24" height="16" fill="#2a2a2a"/>
      <rect x="5"  y="9"  width="22" height="14" fill="#a8382a"/>
      <rect x="5"  y="9"  width="22" height="2"  fill="#cc4c3a"/>
      <rect x="5"  y="9"  width="2"  height="14" fill="#cc4c3a"/>
      <!-- Chimney -->
      <rect x="25" y="12" width="4"  height="4"  fill="#4a4a4a"/>
      <rect x="28" y="13" width="2"  height="2"  fill="#666666"/>
      <rect x="30" y="12" width="2"  height="4"  fill="#cccccc" opacity="0.6"/>
      <!-- Boiler lines -->
      <rect x="17" y="11" width="1"  height="10" fill="#8a2820"/>
      <rect x="20" y="11" width="1"  height="10" fill="#8a2820"/>
      <!-- Cab window -->
      <rect x="6"  y="12" width="4"  height="8"  fill="#2a2a2a"/>
      <rect x="7"  y="13" width="2"  height="6"  fill="#e8d8a8"/>
      <!-- Headlight -->
      <rect x="25" y="14" width="2"  height="4"  fill="#e8d8a8"/>
      <!-- Wheels -->
      <rect x="8"  y="7"  width="4"  height="2"  fill="#666666"/>
      <rect x="8"  y="23" width="4"  height="2"  fill="#4a4a4a"/>
      <rect x="14" y="7"  width="4"  height="2"  fill="#666666"/>
      <rect x="14" y="23" width="4"  height="2"  fill="#4a4a4a"/>
      <rect x="20" y="7"  width="4"  height="2"  fill="#666666"/>
      <rect x="20" y="23" width="4"  height="2"  fill="#4a4a4a"/>
      <!-- Coupler (rear/left) -->
      <rect x="3"  y="14" width="2"  height="4"  fill="#666666"/>
      <rect x="1"  y="15" width="2"  height="2"  fill="#4a4a4a"/>
    </symbol>

    <!-- ═══════════════════════════════════════════ -->
    <!-- LOCOMOTIVE: FACING SOUTH (DOWN)             -->
    <!-- ═══════════════════════════════════════════ -->
    <symbol id="train-loco-s" viewBox="0 0 32 32">
      <rect x="8"  y="4"  width="16" height="24" fill="#2a2a2a"/>
      <rect x="9"  y="5"  width="14" height="22" fill="#a8382a"/>
      <rect x="9"  y="25" width="14" height="2"  fill="#8a2820"/>
      <rect x="9"  y="5"  width="2"  height="22" fill="#cc4c3a"/>
      <!-- Chimney -->
      <rect x="14" y="25" width="4"  height="4"  fill="#4a4a4a"/>
      <rect x="15" y="28" width="2"  height="2"  fill="#666666"/>
      <rect x="14" y="30" width="4"  height="2"  fill="#cccccc" opacity="0.6"/>
      <!-- Boiler lines -->
      <rect x="11" y="20" width="10" height="1"  fill="#8a2820"/>
      <rect x="11" y="23" width="10" height="1"  fill="#8a2820"/>
      <!-- Cab window -->
      <rect x="12" y="7"  width="8"  height="4"  fill="#2a2a2a"/>
      <rect x="13" y="8"  width="6"  height="2"  fill="#e8d8a8"/>
      <!-- Headlight -->
      <rect x="14" y="25" width="4"  height="2"  fill="#e8d8a8"/>
      <!-- Wheels -->
      <rect x="7"  y="8"  width="2"  height="4"  fill="#666666"/>
      <rect x="23" y="8"  width="2"  height="4"  fill="#4a4a4a"/>
      <rect x="7"  y="14" width="2"  height="4"  fill="#666666"/>
      <rect x="23" y="14" width="2"  height="4"  fill="#4a4a4a"/>
      <rect x="7"  y="20" width="2"  height="4"  fill="#666666"/>
      <rect x="23" y="20" width="2"  height="4"  fill="#4a4a4a"/>
      <!-- Coupler (rear/top) -->
      <rect x="14" y="3"  width="4"  height="2"  fill="#666666"/>
      <rect x="15" y="1"  width="2"  height="2"  fill="#4a4a4a"/>
    </symbol>

    <!-- ═══════════════════════════════════════════ -->
    <!-- LOCOMOTIVE: FACING WEST (LEFT)              -->
    <!-- ═══════════════════════════════════════════ -->
    <symbol id="train-loco-w" viewBox="0 0 32 32">
      <rect x="4"  y="8"  width="24" height="16" fill="#2a2a2a"/>
      <rect x="5"  y="9"  width="22" height="14" fill="#a8382a"/>
      <rect x="5"  y="9"  width="22" height="2"  fill="#cc4c3a"/>
      <rect x="25" y="9"  width="2"  height="14" fill="#8a2820"/>
      <!-- Chimney -->
      <rect x="3"  y="12" width="4"  height="4"  fill="#4a4a4a"/>
      <rect x="2"  y="13" width="2"  height="2"  fill="#666666"/>
      <rect x="0"  y="12" width="2"  height="4"  fill="#cccccc" opacity="0.6"/>
      <!-- Boiler lines -->
      <rect x="11" y="11" width="1"  height="10" fill="#8a2820"/>
      <rect x="14" y="11" width="1"  height="10" fill="#8a2820"/>
      <!-- Cab window -->
      <rect x="22" y="12" width="4"  height="8"  fill="#2a2a2a"/>
      <rect x="23" y="13" width="2"  height="6"  fill="#e8d8a8"/>
      <!-- Headlight -->
      <rect x="5"  y="14" width="2"  height="4"  fill="#e8d8a8"/>
      <!-- Wheels -->
      <rect x="8"  y="7"  width="4"  height="2"  fill="#666666"/>
      <rect x="8"  y="23" width="4"  height="2"  fill="#4a4a4a"/>
      <rect x="14" y="7"  width="4"  height="2"  fill="#666666"/>
      <rect x="14" y="23" width="4"  height="2"  fill="#4a4a4a"/>
      <rect x="20" y="7"  width="4"  height="2"  fill="#666666"/>
      <rect x="20" y="23" width="4"  height="2"  fill="#4a4a4a"/>
      <!-- Coupler (rear/right) -->
      <rect x="27" y="14" width="2"  height="4"  fill="#666666"/>
      <rect x="29" y="15" width="2"  height="2"  fill="#4a4a4a"/>
    </symbol>

    <!-- ═══════════════════════════════════════════ -->
    <!-- BUCKET CARRIAGE: FACING NORTH               -->
    <!-- ═══════════════════════════════════════════ -->
    <symbol id="carriage-bucket-n" viewBox="0 0 32 32">
      <!-- Frame / undercarriage -->
      <rect x="9"  y="5"  width="14" height="22" fill="#2a2a2a"/>
      <!-- Wooden sides -->
      <rect x="10" y="6"  width="12" height="20" fill="#7a6832"/>
      <!-- Wood grain / plank lines -->
      <rect x="10" y="6"  width="12" height="1"  fill="#9a884a"/>
      <rect x="10" y="6"  width="1"  height="20" fill="#9a884a"/>
      <rect x="10" y="11" width="12" height="1"  fill="#5a4a28"/>
      <rect x="10" y="16" width="12" height="1"  fill="#5a4a28"/>
      <rect x="10" y="21" width="12" height="1"  fill="#5a4a28"/>
      <!-- Cargo (coal/gravel visible from top) -->
      <rect x="12" y="8"  width="8"  height="14" fill="#555555"/>
      <rect x="13" y="9"  width="2"  height="2"  fill="#444444"/>
      <rect x="17" y="11" width="2"  height="2"  fill="#444444"/>
      <rect x="14" y="14" width="2"  height="2"  fill="#666666"/>
      <rect x="16" y="17" width="2"  height="1"  fill="#444444"/>
      <rect x="13" y="19" width="2"  height="1"  fill="#666666"/>
      <!-- Metal bands -->
      <rect x="9"  y="9"  width="14" height="1"  fill="#4a4a4a"/>
      <rect x="9"  y="18" width="14" height="1"  fill="#4a4a4a"/>
      <!-- Wheels -->
      <rect x="7"  y="8"  width="2"  height="4"  fill="#666666"/>
      <rect x="23" y="8"  width="2"  height="4"  fill="#4a4a4a"/>
      <rect x="7"  y="20" width="2"  height="4"  fill="#666666"/>
      <rect x="23" y="20" width="2"  height="4"  fill="#4a4a4a"/>
      <!-- Coupler (front/top) -->
      <rect x="14" y="3"  width="4"  height="3"  fill="#666666"/>
      <rect x="15" y="1"  width="2"  height="2"  fill="#4a4a4a"/>
      <!-- Coupler (rear/bottom) -->
      <rect x="14" y="26" width="4"  height="3"  fill="#666666"/>
      <rect x="15" y="29" width="2"  height="2"  fill="#4a4a4a"/>
    </symbol>

    <!-- ═══════════════════════════════════════════ -->
    <!-- BUCKET CARRIAGE: FACING EAST                -->
    <!-- ═══════════════════════════════════════════ -->
    <symbol id="carriage-bucket-e" viewBox="0 0 32 32">
      <rect x="5"  y="9"  width="22" height="14" fill="#2a2a2a"/>
      <rect x="6"  y="10" width="20" height="12" fill="#7a6832"/>
      <rect x="6"  y="10" width="20" height="1"  fill="#9a884a"/>
      <rect x="6"  y="10" width="1"  height="12" fill="#9a884a"/>
      <rect x="11" y="10" width="1"  height="12" fill="#5a4a28"/>
      <rect x="16" y="10" width="1"  height="12" fill="#5a4a28"/>
      <rect x="21" y="10" width="1"  height="12" fill="#5a4a28"/>
      <!-- Cargo -->
      <rect x="8"  y="12" width="14" height="8"  fill="#555555"/>
      <rect x="9"  y="13" width="2"  height="2"  fill="#444444"/>
      <rect x="13" y="14" width="2"  height="2"  fill="#666666"/>
      <rect x="17" y="13" width="2"  height="1"  fill="#444444"/>
      <rect x="19" y="16" width="2"  height="2"  fill="#444444"/>
      <!-- Metal bands -->
      <rect x="9"  y="9"  width="1"  height="14" fill="#4a4a4a"/>
      <rect x="18" y="9"  width="1"  height="14" fill="#4a4a4a"/>
      <!-- Wheels -->
      <rect x="8"  y="7"  width="4"  height="2"  fill="#666666"/>
      <rect x="8"  y="23" width="4"  height="2"  fill="#4a4a4a"/>
      <rect x="20" y="7"  width="4"  height="2"  fill="#666666"/>
      <rect x="20" y="23" width="4"  height="2"  fill="#4a4a4a"/>
      <!-- Couplers -->
      <rect x="26" y="14" width="3"  height="4"  fill="#666666"/>
      <rect x="29" y="15" width="2"  height="2"  fill="#4a4a4a"/>
      <rect x="3"  y="14" width="3"  height="4"  fill="#666666"/>
      <rect x="1"  y="15" width="2"  height="2"  fill="#4a4a4a"/>
    </symbol>

    <!-- ═══════════════════════════════════════════ -->
    <!-- BUCKET CARRIAGE: FACING SOUTH               -->
    <!-- ═══════════════════════════════════════════ -->
    <symbol id="carriage-bucket-s" viewBox="0 0 32 32">
      <rect x="9"  y="5"  width="14" height="22" fill="#2a2a2a"/>
      <rect x="10" y="6"  width="12" height="20" fill="#7a6832"/>
      <rect x="10" y="25" width="12" height="1"  fill="#5a4a28"/>
      <rect x="21" y="6"  width="1"  height="20" fill="#5a4a28"/>
      <rect x="10" y="6"  width="1"  height="20" fill="#9a884a"/>
      <rect x="10" y="11" width="12" height="1"  fill="#5a4a28"/>
      <rect x="10" y="16" width="12" height="1"  fill="#5a4a28"/>
      <rect x="10" y="21" width="12" height="1"  fill="#5a4a28"/>
      <!-- Cargo -->
      <rect x="12" y="8"  width="8"  height="14" fill="#555555"/>
      <rect x="15" y="10" width="2"  height="2"  fill="#444444"/>
      <rect x="13" y="13" width="2"  height="2"  fill="#666666"/>
      <rect x="17" y="16" width="2"  height="2"  fill="#444444"/>
      <rect x="14" y="19" width="2"  height="1"  fill="#666666"/>
      <!-- Metal bands -->
      <rect x="9"  y="9"  width="14" height="1"  fill="#4a4a4a"/>
      <rect x="9"  y="18" width="14" height="1"  fill="#4a4a4a"/>
      <!-- Wheels -->
      <rect x="7"  y="8"  width="2"  height="4"  fill="#666666"/>
      <rect x="23" y="8"  width="2"  height="4"  fill="#4a4a4a"/>
      <rect x="7"  y="20" width="2"  height="4"  fill="#666666"/>
      <rect x="23" y="20" width="2"  height="4"  fill="#4a4a4a"/>
      <!-- Couplers -->
      <rect x="14" y="3"  width="4"  height="3"  fill="#666666"/>
      <rect x="15" y="1"  width="2"  height="2"  fill="#4a4a4a"/>
      <rect x="14" y="26" width="4"  height="3"  fill="#666666"/>
      <rect x="15" y="29" width="2"  height="2"  fill="#4a4a4a"/>
    </symbol>

    <!-- ═══════════════════════════════════════════ -->
    <!-- BUCKET CARRIAGE: FACING WEST                -->
    <!-- ═══════════════════════════════════════════ -->
    <symbol id="carriage-bucket-w" viewBox="0 0 32 32">
      <rect x="5"  y="9"  width="22" height="14" fill="#2a2a2a"/>
      <rect x="6"  y="10" width="20" height="12" fill="#7a6832"/>
      <rect x="6"  y="21" width="20" height="1"  fill="#5a4a28"/>
      <rect x="25" y="10" width="1"  height="12" fill="#5a4a28"/>
      <rect x="6"  y="10" width="1"  height="12" fill="#9a884a"/>
      <rect x="11" y="10" width="1"  height="12" fill="#5a4a28"/>
      <rect x="16" y="10" width="1"  height="12" fill="#5a4a28"/>
      <rect x="21" y="10" width="1"  height="12" fill="#5a4a28"/>
      <!-- Cargo -->
      <rect x="8"  y="12" width="14" height="8"  fill="#555555"/>
      <rect x="10" y="13" width="2"  height="2"  fill="#666666"/>
      <rect x="14" y="15" width="2"  height="2"  fill="#444444"/>
      <rect x="18" y="13" width="2"  height="1"  fill="#444444"/>
      <rect x="11" y="17" width="2"  height="1"  fill="#666666"/>
      <!-- Metal bands -->
      <rect x="9"  y="9"  width="1"  height="14" fill="#4a4a4a"/>
      <rect x="18" y="9"  width="1"  height="14" fill="#4a4a4a"/>
      <!-- Wheels -->
      <rect x="8"  y="7"  width="4"  height="2"  fill="#666666"/>
      <rect x="8"  y="23" width="4"  height="2"  fill="#4a4a4a"/>
      <rect x="20" y="7"  width="4"  height="2"  fill="#666666"/>
      <rect x="20" y="23" width="4"  height="2"  fill="#4a4a4a"/>
      <!-- Couplers -->
      <rect x="26" y="14" width="3"  height="4"  fill="#666666"/>
      <rect x="29" y="15" width="2"  height="2"  fill="#4a4a4a"/>
      <rect x="3"  y="14" width="3"  height="4"  fill="#666666"/>
      <rect x="1"  y="15" width="2"  height="2"  fill="#4a4a4a"/>
    </symbol>

  </defs>

</svg>
